# xmcd
#
# Track frame offsets:
#	150
#	10057
#	22271
#	32667
#	45729
#	56988
#	67619
#	78137
#	92060
#	106021
#	116385
#	125111
#	141431
#	165904
#	184541
#	223624
#
# Disc length: 3295 seconds
#
# Revision: 0
# Processed by: cddbd v1.5.2PL0 Copyright (c) Steve Scherf et al.
# Submitted via: dBpowerAMP V4.0
#
DISCID=ce0cdd10
DTITLE=Gerri Diamond - Rember When
DYEAR=2011
DGENRE=Blues
TTITLE0=Breakaway
TTITLE1=I'm Breaking the Law
TTITLE2=Tender Touch
TTITLE3=Give up on Love
TTITLE4=Momma You Forgot
TTITLE5=Day by Day
TTITLE6=Rookie
TTITLE7=Only You Can Feel the Loss
TTITLE8=My Little Soldier Man
TTITLE9=Plain Old Everyday Boy
TTITLE10=Sunshine of Your Smile
TTITLE11=the "Gavotte"
TTITLE12=Remember When
TTITLE13=APB
TTITLE14=Janis Cried
TTITLE15=Delicious (live version)
EXTD=
EXTT0=
EXTT1=
EXTT2=
EXTT3=
EXTT4=
EXTT5=
EXTT6=
EXTT7=
EXTT8=
EXTT9=
EXTT10=
EXTT11=
EXTT12=
EXTT13=
EXTT14=
EXTT15=
PLAYORDER=
